<svg width="36" height="36" viewBox="0 0 36 36" fill="none" xmlns="http://www.w3.org/2000/svg">
<path d="M21.6449 28.23C21.3599 28.23 21.0749 28.125 20.8499 27.9C20.4149 27.465 20.4149 26.745 20.8499 26.31L29.1599 18L20.8499 9.68999C20.4149 9.25499 20.4149 8.53499 20.8499 8.09999C21.2849 7.66499 22.0049 7.66499 22.4399 8.09999L31.5449 17.205C31.9799 17.64 31.9799 18.36 31.5449 18.795L22.4399 27.9C22.2149 28.125 21.9299 28.23 21.6449 28.23Z" fill="#081027"/>
<path d="M30.495 19.125H5.25C4.635 19.125 4.125 18.615 4.125 18C4.125 17.385 4.635 16.875 5.25 16.875H30.495C31.11 16.875 31.62 17.385 31.62 18C31.62 18.615 31.11 19.125 30.495 19.125Z" fill="#081027"/>
</svg>
