<svg width="24" height="24" viewBox="0 0 24 24" fill="none" xmlns="http://www.w3.org/2000/svg">
<path d="M16.3012 9.23419C15.6688 9.23419 15.0507 9.4217 14.5249 9.77301C13.9992 10.1243 13.5894 10.6236 13.3474 11.2078C13.1054 11.792 13.0421 12.4349 13.1655 13.055C13.2888 13.6752 13.5933 14.2449 14.0405 14.692C14.4876 15.1392 15.0572 15.4436 15.6774 15.567C16.2976 15.6904 16.9404 15.6271 17.5246 15.3851C18.1088 15.1431 18.6082 14.7333 18.9595 14.2075C19.3108 13.6818 19.4983 13.0636 19.4983 12.4313C19.4974 11.5837 19.1603 10.771 18.5609 10.1716C17.9615 9.5722 17.1488 9.23507 16.3012 9.23419Z" fill="white"/>
<path d="M6.31658 19.9542L4.04625 17.6788L4.42297 17.3005L6.69496 19.5724L6.31658 19.9542ZM21.6071 6.12719L17.8732 2.38499C17.6156 2.13794 17.2725 2 16.9156 2C16.5587 2 16.2156 2.13794 15.958 2.38499L6.09654 12.2681C5.9283 12.4378 5.81136 12.6516 5.75916 12.8848C5.70697 13.1181 5.72165 13.3613 5.8015 13.5866C5.89598 13.8324 6.05955 14.0457 6.2725 14.2007C6.48545 14.3557 6.73869 14.4457 7.00167 14.46C7.02202 14.4612 7.04155 14.4685 7.05764 14.481C7.07372 14.4935 7.0856 14.5106 7.09169 14.5301C7.09962 14.5498 7.10148 14.5714 7.09703 14.5922C7.09257 14.613 7.082 14.632 7.06668 14.6467L4.90971 16.8137L7.18003 19.089L9.14531 17.1188C9.16791 17.0944 9.19523 17.0749 9.22561 17.0614C9.25598 17.048 9.28878 17.0408 9.32201 17.0404C9.38881 17.0431 9.4528 17.068 9.50384 17.1112C9.55487 17.1544 9.59002 17.2133 9.60371 17.2788C9.66682 17.565 9.82482 17.8216 10.0521 18.0068C10.2793 18.1919 10.5624 18.2949 10.8556 18.2989C11.021 18.2992 11.1849 18.2667 11.3377 18.2031C11.4905 18.1396 11.6292 18.0464 11.7457 17.9289L14.156 15.5135C13.7092 15.189 13.338 14.7714 13.0679 14.2897C12.7978 13.808 12.6353 13.2734 12.5915 12.7229C12.5477 12.1724 12.6237 11.6189 12.8142 11.1005C13.0048 10.5821 13.3053 10.1112 13.6952 9.72006C14.0852 9.32893 14.5552 9.02691 15.0729 8.83476C15.5907 8.64261 16.144 8.56489 16.6946 8.60696C17.2453 8.64903 17.7803 8.80988 18.2629 9.07846C18.7455 9.34703 19.1642 9.71695 19.4901 10.1628L21.6021 8.0458C21.8563 7.79158 21.9996 7.44705 22.0005 7.08752C22.0014 6.728 21.86 6.38273 21.6071 6.12719ZM2.31267 19.4158C2.11245 19.6164 2 19.8883 2 20.1717C2 20.4551 2.11245 20.727 2.31267 20.9276L3.07445 21.6911C3.27395 21.889 3.54356 22 3.82455 22C4.10555 22 4.37516 21.889 4.57466 21.6911L5.8165 20.4459L3.55451 18.1706L2.31267 19.4158Z" fill="white"/>
</svg>
