<svg width="168" height="168" viewBox="0 0 168 168" fill="none" xmlns="http://www.w3.org/2000/svg">
<g style="mix-blend-mode:overlay" opacity="0.7">
<path fill-rule="evenodd" clip-rule="evenodd" d="M63.0001 126C51.402 126 42.0001 135.402 42.0001 147C42.0001 158.598 51.402 168 63.0001 168C74.5982 168 84.0001 158.598 84.0001 147C84.0001 135.402 74.5982 126 63.0001 126Z" fill="#081027" fill-opacity="0.2"/>
<path fill-rule="evenodd" clip-rule="evenodd" d="M62.9998 137.624C57.821 137.624 53.6226 141.821 53.6226 147C53.6226 152.179 57.821 156.377 62.9998 156.377C68.1781 156.377 72.3764 152.179 72.3764 147C72.3764 141.821 68.1781 137.624 62.9998 137.624Z" fill="white" fill-opacity="0.4"/>
<path fill-rule="evenodd" clip-rule="evenodd" d="M84.0003 126L126 126L126 168L84.0003 168L84.0003 126Z" fill="#081027" fill-opacity="0.4"/>
<path fill-rule="evenodd" clip-rule="evenodd" d="M42.0001 126L7.67893e-07 126C3.43793e-07 149.196 18.8043 168 42.0001 168L42.0001 126Z" fill="white" fill-opacity="0.2"/>
<path fill-rule="evenodd" clip-rule="evenodd" d="M126 126L126 168L168 168C168 144.804 149.196 126 126 126Z" fill="#081027" fill-opacity="0.2"/>
<path fill-rule="evenodd" clip-rule="evenodd" d="M42 83.9999C18.8042 83.9999 -6.06111e-05 102.804 -6.10352e-05 126L42 126L42 83.9999Z" fill="#081027" fill-opacity="0.2"/>
<path fill-rule="evenodd" clip-rule="evenodd" d="M41.9998 102.119C28.8103 102.119 18.1185 112.811 18.1185 126L41.9998 126L41.9998 102.119Z" fill="white" fill-opacity="0.4"/>
<path fill-rule="evenodd" clip-rule="evenodd" d="M42.0001 83.9999L84.0001 83.9999L84.0001 126L42.0001 126L42.0001 83.9999Z" fill="#081027" fill-opacity="0.4"/>
<path fill-rule="evenodd" clip-rule="evenodd" d="M54.0121 96.0126L71.9882 96.0126L71.9882 113.988L54.0121 113.988L54.0121 96.0126Z" fill="white" fill-opacity="0.5"/>
<path fill-rule="evenodd" clip-rule="evenodd" d="M84.0003 83.9999L126 83.9999L126 126L84.0003 126L84.0003 83.9999Z" fill="white" fill-opacity="0.2"/>
<path fill-rule="evenodd" clip-rule="evenodd" d="M126 83.9999L84.0003 83.9999C84.0003 107.196 102.804 126 126 126L126 83.9999Z" fill="#081027" fill-opacity="0.2"/>
<path fill-rule="evenodd" clip-rule="evenodd" d="M168 83.9999L126 83.9999L126 126C149.196 126 168 107.196 168 83.9999Z" fill="white" fill-opacity="0.4"/>
<path fill-rule="evenodd" clip-rule="evenodd" d="M42.0001 41.9998L84.0001 41.9998L84.0001 83.9995L42.0001 83.9995L42.0001 41.9998Z" fill="#081027" fill-opacity="0.2"/>
<path fill-rule="evenodd" clip-rule="evenodd" d="M84.0003 41.9998L126 41.9998L126 83.9995L84.0003 83.9995L84.0003 41.9998Z" fill="#081027" fill-opacity="0.4"/>
<path fill-rule="evenodd" clip-rule="evenodd" d="M21 41.9998C9.40184 41.9998 -6.04392e-05 51.4018 -6.06512e-05 62.9999C-6.08633e-05 74.5976 9.40184 83.9995 21 83.9995C32.5981 83.9995 42 74.5976 42 62.9999C42 51.4018 32.5981 41.9998 21 41.9998Z" fill="#081027" fill-opacity="0.4"/>
<path fill-rule="evenodd" clip-rule="evenodd" d="M21.0001 53.6298C15.8253 53.6298 11.6294 57.8252 11.6294 63.0004C11.6294 68.1752 15.8253 72.3706 21.0001 72.3706C26.1753 72.3706 30.3707 68.1752 30.3707 63.0004C30.3707 57.8252 26.1753 53.6298 21.0001 53.6298Z" fill="white" fill-opacity="0.5"/>
<path fill-rule="evenodd" clip-rule="evenodd" d="M126 41.9998L168 41.9998L168 83.9995L126 83.9995L126 41.9998Z" fill="#081027" fill-opacity="0.4"/>
<path fill-rule="evenodd" clip-rule="evenodd" d="M126 41.9998C102.804 41.9998 84.0003 60.8037 84.0003 83.9995L126 83.9995L126 41.9998Z" fill="#081027" fill-opacity="0.2"/>
<path fill-rule="evenodd" clip-rule="evenodd" d="M126 41.9998L126 83.9995L168 83.9995C168 60.8037 149.196 41.9998 126 41.9998Z" fill="white" fill-opacity="0.5"/>
<path fill-rule="evenodd" clip-rule="evenodd" d="M126 83.9995L105.204 83.9995C105.204 95.4852 114.515 104.795 126 104.795L126 83.9995Z" fill="#081027" fill-opacity="0.4"/>
<path fill-rule="evenodd" clip-rule="evenodd" d="M146.796 83.9995L126 83.9995L126 104.795C137.485 104.795 146.796 95.4852 146.796 83.9995Z" fill="#081027" fill-opacity="0.2"/>
<path fill-rule="evenodd" clip-rule="evenodd" d="M126 63.2041C114.515 63.2041 105.204 72.5148 105.204 83.9995L126 83.9995L126 63.2041Z" fill="#081027" fill-opacity="0.1"/>
<path fill-rule="evenodd" clip-rule="evenodd" d="M126 63.2041L126 83.9995L146.796 83.9995C146.796 72.5148 137.485 63.2041 126 63.2041Z" fill="#081027" fill-opacity="0.4"/>
<path fill-rule="evenodd" clip-rule="evenodd" d="M42 0.000423431C18.8042 0.000423431 -6.06111e-05 18.8047 -6.10352e-05 42.0005L42 42.0005L42 0.000423431Z" fill="white" fill-opacity="0.2"/>
<path fill-rule="evenodd" clip-rule="evenodd" d="M42.0001 0.000423431L84.0001 0.000423431L84.0001 42.0005L42.0001 42.0005L42.0001 0.000423431Z" fill="#081027" fill-opacity="0.4"/>
<path fill-rule="evenodd" clip-rule="evenodd" d="M84.0001 0.000423431L42.0001 0.000423431L84.0001 42.0005L84.0001 0.000423431Z" fill="#081027" fill-opacity="0.1"/>
<path fill-rule="evenodd" clip-rule="evenodd" d="M126 0.000423431L84.0003 0.000423431L84.0003 42.0005C107.196 42.0005 126 23.1962 126 0.000423431Z" fill="#081027" fill-opacity="0.2"/>
<path fill-rule="evenodd" clip-rule="evenodd" d="M168 0.000423431L126 0.000423431C126 23.1962 144.804 42.0005 168 42.0005L168 0.000423431Z" fill="#081027" fill-opacity="0.4"/>
<path fill-rule="evenodd" clip-rule="evenodd" d="M168 0.000423431L126 0.000423431C126 23.1962 144.804 42.0005 168 42.0005L168 0.000423431Z" fill="#081027" fill-opacity="0.1"/>
<path fill-rule="evenodd" clip-rule="evenodd" d="M168 -9.53674e-05L141.621 -9.53674e-05C141.621 14.5685 153.431 26.3794 168 26.3794L168 -9.53674e-05Z" fill="white" fill-opacity="0.3"/>
<path fill-rule="evenodd" clip-rule="evenodd" d="M47.2376 68.8789C47.7729 68.8789 48.2971 69.0962 48.6757 69.4752C49.0548 69.8538 49.2715 70.3775 49.2715 70.9133C49.2715 71.4492 49.0548 71.9734 48.6757 72.3519C48.2971 72.7305 47.7729 72.9478 47.2376 72.9478C46.7018 72.9478 46.1775 72.7305 45.799 72.3519C45.4199 71.9734 45.2027 71.4492 45.2027 70.9133C45.2027 70.3775 45.4199 69.8538 45.799 69.4752C46.1775 69.0962 46.7018 68.8789 47.2376 68.8789Z" fill="#081027" fill-opacity="0.4"/>
<path fill-rule="evenodd" clip-rule="evenodd" d="M68.2132 68.8789H68.2233C69.3468 68.8789 70.2577 69.7898 70.2577 70.9133C70.2577 72.0374 69.3468 72.9478 68.2233 72.9478H68.2132C67.0896 72.9478 66.1788 72.0374 66.1788 70.9133C66.1788 69.7898 67.0896 68.8789 68.2132 68.8789Z" fill="#081027" fill-opacity="0.4"/>
<path fill-rule="evenodd" clip-rule="evenodd" d="M57.7224 68.8789H57.7325C58.8561 68.8789 59.7669 69.7898 59.7669 70.9133C59.7669 72.0374 58.8561 72.9478 57.7325 72.9478H57.7224C56.5988 72.9478 55.688 72.0374 55.688 70.9133C55.688 69.7898 56.5988 68.8789 57.7224 68.8789Z" fill="#081027" fill-opacity="0.4"/>
<path fill-rule="evenodd" clip-rule="evenodd" d="M78.7084 68.8789C79.2437 68.8789 79.7679 69.0962 80.1465 69.4752C80.5256 69.8538 80.7428 70.3775 80.7428 70.9133C80.7428 71.4492 80.5256 71.9734 80.1465 72.3519C79.7679 72.7305 79.2437 72.9478 78.7084 72.9478C78.1726 72.9478 77.6483 72.7305 77.2693 72.3519C76.8907 71.9734 76.6735 71.4492 76.6735 70.9133C76.6735 70.3775 76.8907 69.8538 77.2693 69.4752C77.6483 69.0962 78.1726 68.8789 78.7084 68.8789Z" fill="#081027" fill-opacity="0.4"/>
<path fill-rule="evenodd" clip-rule="evenodd" d="M47.2376 77.2363C47.7729 77.2363 48.2971 77.4541 48.6757 77.8326C49.0548 78.2117 49.2715 78.7354 49.2715 79.2712C49.2715 79.8071 49.0548 80.3308 48.6757 80.7099C48.2971 81.0889 47.7729 81.3057 47.2376 81.3057C46.7018 81.3057 46.1775 81.0889 45.799 80.7099C45.4199 80.3308 45.2027 79.8071 45.2027 79.2712C45.2027 78.7354 45.4199 78.2117 45.799 77.8326C46.1775 77.4541 46.7018 77.2363 47.2376 77.2363Z" fill="#081027" fill-opacity="0.4"/>
<path fill-rule="evenodd" clip-rule="evenodd" d="M68.2132 77.2363H68.2233C69.3468 77.2363 70.2577 78.1477 70.2577 79.2712C70.2577 80.3948 69.3468 81.3057 68.2233 81.3057H68.2132C67.0896 81.3057 66.1788 80.3948 66.1788 79.2712C66.1788 78.1477 67.0896 77.2363 68.2132 77.2363Z" fill="#081027" fill-opacity="0.4"/>
<path fill-rule="evenodd" clip-rule="evenodd" d="M57.7224 77.2363H57.7325C58.8561 77.2363 59.7669 78.1477 59.7669 79.2712C59.7669 80.3948 58.8561 81.3057 57.7325 81.3057H57.7224C56.5988 81.3057 55.688 80.3948 55.688 79.2712C55.688 78.1477 56.5988 77.2363 57.7224 77.2363Z" fill="#081027" fill-opacity="0.4"/>
<path fill-rule="evenodd" clip-rule="evenodd" d="M78.7086 77.2363C79.2439 77.2363 79.7681 77.4541 80.1467 77.8326C80.5257 78.2117 80.743 78.7354 80.743 79.2712C80.743 79.8071 80.5257 80.3308 80.1467 80.7099C79.7681 81.0889 79.2439 81.3057 78.7086 81.3057C78.1727 81.3057 77.6485 81.0889 77.2695 80.7099C76.8909 80.3308 76.6736 79.8071 76.6736 79.2712C76.6736 78.7354 76.8909 78.2117 77.2695 77.8326C77.6485 77.4541 78.1727 77.2363 78.7086 77.2363Z" fill="#081027" fill-opacity="0.4"/>
<path fill-rule="evenodd" clip-rule="evenodd" d="M47.2376 60.522C47.7729 60.522 48.2971 60.7392 48.6757 61.1178C49.0548 61.4968 49.2715 62.0206 49.2715 62.5564C49.2715 63.0922 49.0548 63.6159 48.6757 63.995C48.2971 64.3741 47.7729 64.5908 47.2376 64.5908C46.7018 64.5908 46.1775 64.3741 45.799 63.995C45.4199 63.6159 45.2027 63.0922 45.2027 62.5564C45.2027 62.0206 45.4199 61.4968 45.799 61.1178C46.1775 60.7392 46.7018 60.522 47.2376 60.522Z" fill="#081027" fill-opacity="0.4"/>
<path fill-rule="evenodd" clip-rule="evenodd" d="M68.2132 60.522H68.2233C69.3468 60.522 70.2577 61.4328 70.2577 62.5564C70.2577 63.68 69.3468 64.5908 68.2233 64.5908H68.2132C67.0896 64.5908 66.1788 63.68 66.1788 62.5564C66.1788 61.4328 67.0896 60.522 68.2132 60.522Z" fill="#081027" fill-opacity="0.4"/>
<path fill-rule="evenodd" clip-rule="evenodd" d="M57.7224 60.522H57.7324C58.856 60.522 59.7669 61.4328 59.7669 62.5564C59.7669 63.68 58.856 64.5908 57.7324 64.5908H57.7224C56.5988 64.5908 55.6879 63.68 55.6879 62.5564C55.6879 61.4328 56.5988 60.522 57.7224 60.522Z" fill="#081027" fill-opacity="0.4"/>
<path fill-rule="evenodd" clip-rule="evenodd" d="M78.7084 60.522C79.2437 60.522 79.7679 60.7392 80.1465 61.1178C80.5256 61.4968 80.7428 62.0206 80.7428 62.5564C80.7428 63.0922 80.5256 63.6159 80.1465 63.995C79.7679 64.3741 79.2437 64.5908 78.7084 64.5908C78.1726 64.5908 77.6483 64.3741 77.2693 63.995C76.8907 63.6159 76.6735 63.0922 76.6735 62.5564C76.6735 62.0206 76.8907 61.4968 77.2693 61.1178C77.6483 60.7392 78.1726 60.522 78.7084 60.522Z" fill="#081027" fill-opacity="0.4"/>
<path fill-rule="evenodd" clip-rule="evenodd" d="M47.2376 52.1646C47.7729 52.1646 48.2971 52.3818 48.6757 52.7609C49.0548 53.1394 49.2715 53.6637 49.2715 54.199C49.2715 54.7348 49.0548 55.259 48.6757 55.6381C48.2971 56.0166 47.7729 56.2334 47.2376 56.2334C46.7018 56.2334 46.1775 56.0166 45.799 55.6381C45.4199 55.259 45.2027 54.7348 45.2027 54.199C45.2027 53.6637 45.4199 53.1394 45.799 52.7609C46.1775 52.3818 46.7018 52.1646 47.2376 52.1646Z" fill="#081027" fill-opacity="0.4"/>
<path fill-rule="evenodd" clip-rule="evenodd" d="M68.2132 52.1646H68.2233C69.3468 52.1646 70.2577 53.0759 70.2577 54.199C70.2577 55.3231 69.3468 56.2334 68.2233 56.2334L68.2132 56.2334C67.0896 56.2334 66.1788 55.3231 66.1788 54.199C66.1788 53.0759 67.0896 52.1646 68.2132 52.1646Z" fill="#081027" fill-opacity="0.4"/>
<path fill-rule="evenodd" clip-rule="evenodd" d="M57.7224 52.1646H57.7324C58.856 52.1646 59.7669 53.0759 59.7669 54.199C59.7669 55.3231 58.856 56.2334 57.7324 56.2334H57.7224C56.5988 56.2334 55.6879 55.3231 55.6879 54.199C55.6879 53.0759 56.5988 52.1646 57.7224 52.1646Z" fill="#081027" fill-opacity="0.4"/>
<path fill-rule="evenodd" clip-rule="evenodd" d="M78.7084 52.1646C79.2437 52.1646 79.7679 52.3818 80.1465 52.7609C80.5256 53.1394 80.7428 53.6637 80.7428 54.199C80.7428 54.7348 80.5256 55.259 80.1465 55.6381C79.7679 56.0166 79.2437 56.2334 78.7084 56.2334C78.1726 56.2334 77.6483 56.0166 77.2693 55.6381C76.8907 55.259 76.6735 54.7348 76.6735 54.199C76.6735 53.6637 76.8907 53.1394 77.2693 52.7609C77.6483 52.3818 78.1726 52.1646 78.7084 52.1646Z" fill="#081027" fill-opacity="0.4"/>
<path fill-rule="evenodd" clip-rule="evenodd" d="M47.2376 43.8091C47.7729 43.8091 48.2971 44.0258 48.6757 44.4049C49.0548 44.7834 49.2715 45.3077 49.2715 45.8435C49.2715 46.3788 49.0548 46.9031 48.6757 47.2821C48.2971 47.6607 47.7729 47.8779 47.2376 47.8779C46.7018 47.8779 46.1775 47.6607 45.799 47.2821C45.4199 46.9031 45.2027 46.3788 45.2027 45.8435C45.2027 45.3077 45.4199 44.7834 45.799 44.4049C46.1775 44.0258 46.7018 43.8091 47.2376 43.8091Z" fill="#081027" fill-opacity="0.4"/>
<path fill-rule="evenodd" clip-rule="evenodd" d="M68.2132 43.8091H68.2233C69.3468 43.8091 70.2577 44.7199 70.2577 45.8435C70.2577 46.9671 69.3468 47.8779 68.2233 47.8779H68.2132C67.0896 47.8779 66.1788 46.9671 66.1788 45.8435C66.1788 44.7199 67.0896 43.8091 68.2132 43.8091Z" fill="#081027" fill-opacity="0.4"/>
<path fill-rule="evenodd" clip-rule="evenodd" d="M57.7224 43.8091L57.7324 43.8091C58.856 43.8091 59.7669 44.7199 59.7669 45.8435C59.7669 46.9671 58.856 47.8779 57.7324 47.8779H57.7224C56.5988 47.8779 55.6879 46.9671 55.6879 45.8435C55.6879 44.7199 56.5988 43.8091 57.7224 43.8091Z" fill="#081027" fill-opacity="0.4"/>
<path fill-rule="evenodd" clip-rule="evenodd" d="M78.7084 43.8091C79.2437 43.8091 79.7679 44.0258 80.1465 44.4049C80.5256 44.7834 80.7428 45.3077 80.7428 45.8435C80.7428 46.3788 80.5256 46.9031 80.1465 47.2821C79.7679 47.6607 79.2437 47.8779 78.7084 47.8779C78.1726 47.8779 77.6483 47.6607 77.2693 47.2821C76.8907 46.9031 76.6735 46.3788 76.6735 45.8435C76.6735 45.3077 76.8907 44.7834 77.2693 44.4049C77.6483 44.0258 78.1726 43.8091 78.7084 43.8091Z" fill="#081027" fill-opacity="0.4"/>
</g>
</svg>
