<svg width="18" height="18" viewBox="0 0 18 18" fill="none" xmlns="http://www.w3.org/2000/svg">
<path fill-rule="evenodd" clip-rule="evenodd" d="M5.4375 3.75C5.4375 4.0575 5.6925 4.3125 6 4.3125C6.3075 4.3125 6.5625 4.0575 6.5625 3.75V3.1875H11.4375V3.75C11.4375 4.0575 11.6925 4.3125 12 4.3125C12.3075 4.3125 12.5625 4.0575 12.5625 3.75V3.21386C14.2909 3.38442 15.1514 4.38405 15.1864 6.25497H2.81361C2.84856 4.38405 3.70911 3.38442 5.4375 3.21386V3.75ZM6.5625 2.0625V1.5C6.5625 1.1925 6.3075 0.9375 6 0.9375C5.6925 0.9375 5.4375 1.1925 5.4375 1.5V2.08593C3.04787 2.29078 1.6875 3.83085 1.6875 6.375V12.75C1.6875 15.4875 3.2625 17.0625 6 17.0625H12C14.7375 17.0625 16.3125 15.4875 16.3125 12.75V6.375C16.3125 3.83085 14.9521 2.29078 12.5625 2.08593V1.5C12.5625 1.1925 12.3075 0.9375 12 0.9375C11.6925 0.9375 11.4375 1.1925 11.4375 1.5V2.0625H6.5625ZM2.8125 7.37997V12.75C2.8125 14.895 3.855 15.9375 6 15.9375H12C14.145 15.9375 15.1875 14.895 15.1875 12.75V7.37997H2.8125ZM6.375 10.875C6.2775 10.875 6.18 10.8525 6.09 10.815C5.9925 10.7775 5.9175 10.725 5.8425 10.6575C5.7075 10.515 5.625 10.3275 5.625 10.125C5.625 10.0275 5.6475 9.93 5.685 9.84C5.7225 9.75 5.775 9.66751 5.8425 9.59251C5.9175 9.52501 5.9925 9.4725 6.09 9.43499C6.36 9.32249 6.6975 9.38251 6.9075 9.59251C7.0425 9.73501 7.125 9.93001 7.125 10.125C7.125 10.17 7.1175 10.2225 7.11 10.275C7.1025 10.32 7.0875 10.365 7.065 10.41C7.05 10.455 7.0275 10.5 6.9975 10.545C6.9825 10.57 6.96084 10.595 6.93918 10.62C6.92834 10.6325 6.9175 10.645 6.9075 10.6575C6.765 10.7925 6.57 10.875 6.375 10.875ZM8.715 10.815C8.805 10.8525 8.9025 10.875 9 10.875C9.195 10.875 9.39 10.7925 9.5325 10.6575C9.5425 10.645 9.55334 10.6325 9.56418 10.62C9.58584 10.595 9.6075 10.57 9.6225 10.545C9.6525 10.5 9.675 10.455 9.69 10.41C9.7125 10.365 9.7275 10.32 9.735 10.275C9.7425 10.2225 9.75 10.17 9.75 10.125C9.75 9.93 9.6675 9.735 9.5325 9.5925C9.3225 9.3825 8.985 9.31499 8.715 9.43499C8.6175 9.47249 8.5425 9.525 8.4675 9.5925C8.4 9.6675 8.3475 9.74999 8.31 9.83999C8.2725 9.92999 8.25 10.0275 8.25 10.125C8.25 10.3275 8.3325 10.515 8.4675 10.6575C8.5425 10.725 8.6175 10.7775 8.715 10.815ZM11.625 10.875C11.5275 10.875 11.43 10.8525 11.34 10.815C11.2425 10.7775 11.1675 10.725 11.0925 10.6575L11.0025 10.545C10.9725 10.5 10.95 10.455 10.935 10.41C10.9125 10.365 10.8975 10.32 10.89 10.275C10.8825 10.2225 10.875 10.17 10.875 10.125C10.875 9.93 10.9575 9.735 11.0925 9.5925C11.1675 9.525 11.2425 9.47249 11.34 9.43499C11.6175 9.31499 11.9475 9.3825 12.1575 9.5925C12.2925 9.735 12.375 9.93 12.375 10.125C12.375 10.17 12.3675 10.2225 12.36 10.275C12.3525 10.32 12.3375 10.365 12.315 10.41C12.3 10.455 12.2775 10.5 12.2475 10.545C12.2325 10.57 12.2108 10.595 12.1892 10.62C12.1783 10.6325 12.1675 10.645 12.1575 10.6575C12.015 10.7925 11.82 10.875 11.625 10.875ZM6.09 13.44C6.18 13.4775 6.2775 13.5 6.375 13.5C6.57 13.5 6.765 13.4175 6.9075 13.2825C7.0425 13.14 7.125 12.945 7.125 12.75C7.125 12.555 7.0425 12.36 6.9075 12.2175C6.63 11.94 6.12 11.94 5.8425 12.2175C5.775 12.285 5.7225 12.3675 5.685 12.465C5.6475 12.555 5.625 12.6525 5.625 12.75C5.625 12.945 5.7075 13.14 5.8425 13.2825C5.9175 13.35 6 13.4025 6.09 13.44ZM9 13.5C8.805 13.5 8.61 13.4175 8.4675 13.2825C8.3325 13.14 8.25 12.945 8.25 12.75C8.25 12.6525 8.2725 12.555 8.31 12.465C8.3475 12.3675 8.4 12.285 8.4675 12.2175C8.745 11.94 9.255 11.94 9.5325 12.2175C9.6 12.285 9.6525 12.3675 9.69 12.465C9.7275 12.555 9.75 12.6525 9.75 12.75C9.75 12.945 9.6675 13.14 9.5325 13.2825C9.39 13.4175 9.195 13.5 9 13.5ZM11.0925 13.2825C11.235 13.4175 11.43 13.5 11.625 13.5C11.82 13.5 12.015 13.4175 12.1575 13.2825C12.2925 13.14 12.375 12.945 12.375 12.75C12.375 12.555 12.2925 12.36 12.1575 12.2175C12.145 12.2075 12.1325 12.1967 12.12 12.1859L12.12 12.1859C12.095 12.1642 12.07 12.1425 12.045 12.1275C12 12.0975 11.955 12.075 11.91 12.06C11.865 12.0375 11.82 12.0225 11.7675 12.015C11.5275 11.9625 11.265 12.045 11.0925 12.2175C11.025 12.285 10.9725 12.3675 10.935 12.465C10.8975 12.555 10.875 12.6525 10.875 12.75C10.875 12.8475 10.8975 12.945 10.935 13.035C10.9725 13.1325 11.025 13.215 11.0925 13.2825Z" fill="#33A2D2"/>
</svg>
