<svg width="20" height="20" viewBox="0 0 20 20" fill="none" xmlns="http://www.w3.org/2000/svg">
<path d="M14.9998 6.59172C14.9748 6.59172 14.9582 6.59172 14.9332 6.59172H14.8915C13.3165 6.54172 12.1415 5.32505 12.1415 3.82505C12.1415 2.29172 13.3915 1.05005 14.9165 1.05005C16.4415 1.05005 17.6915 2.30005 17.6915 3.82505C17.6832 5.33338 16.5082 6.55005 15.0082 6.60005C15.0082 6.59172 15.0082 6.59172 14.9998 6.59172ZM14.9165 2.29172C14.0748 2.29172 13.3915 2.97505 13.3915 3.81672C13.3915 4.64172 14.0332 5.30839 14.8582 5.34172C14.8665 5.33339 14.9332 5.33339 15.0082 5.34172C15.8165 5.30006 16.4415 4.63339 16.4498 3.81672C16.4498 2.97505 15.7665 2.29172 14.9165 2.29172Z" fill="#33A2D2"/>
<path d="M15.0083 12.7334C14.6833 12.7334 14.3583 12.7084 14.0333 12.65C13.6917 12.5917 13.4667 12.2667 13.525 11.925C13.5833 11.5834 13.9083 11.3584 14.25 11.4167C15.275 11.5917 16.3583 11.4 17.0833 10.9167C17.475 10.6584 17.6833 10.3334 17.6833 10.0084C17.6833 9.68337 17.4667 9.3667 17.0833 9.10837C16.3583 8.62504 15.2583 8.43337 14.225 8.61671C13.8833 8.68337 13.5583 8.45004 13.5 8.10837C13.4417 7.76671 13.6667 7.44171 14.0083 7.38338C15.3667 7.14171 16.775 7.40004 17.775 8.0667C18.5083 8.55837 18.9333 9.25837 18.9333 10.0084C18.9333 10.75 18.5167 11.4584 17.775 11.9584C17.0167 12.4584 16.0333 12.7334 15.0083 12.7334Z" fill="#33A2D2"/>
<path d="M4.975 6.59175C4.96666 6.59175 4.95833 6.59175 4.95833 6.59175C3.45833 6.54175 2.28333 5.32508 2.27499 3.82508C2.27499 2.29175 3.525 1.04175 5.05 1.04175C6.575 1.04175 7.82499 2.29175 7.82499 3.81675C7.82499 5.32508 6.64999 6.54175 5.14999 6.59175H5.03333C5.01666 6.59175 4.99166 6.59175 4.975 6.59175ZM5.05833 5.34175C5.10833 5.34175 5.15 5.34175 5.2 5.35008C5.94166 5.31675 6.59166 4.65008 6.59166 3.82508C6.59166 2.98341 5.90833 2.30008 5.06666 2.30008C4.225 2.30008 3.54166 2.98341 3.54166 3.82508C3.54166 4.64175 4.17499 5.30008 4.98333 5.35008C4.99166 5.34175 5.02499 5.34175 5.05833 5.34175Z" fill="#33A2D2"/>
<path d="M4.96666 12.7334C3.94166 12.7334 2.95832 12.4584 2.19999 11.9584C1.46666 11.4667 1.04166 10.7584 1.04166 10.0084C1.04166 9.26671 1.46666 8.55837 2.19999 8.0667C3.19999 7.40004 4.60832 7.14171 5.96666 7.38338C6.30832 7.44171 6.53332 7.76671 6.47499 8.10837C6.41666 8.45004 6.09166 8.68337 5.74999 8.61671C4.71666 8.43337 3.62499 8.62504 2.89166 9.10837C2.49999 9.3667 2.29166 9.68337 2.29166 10.0084C2.29166 10.3334 2.50832 10.6584 2.89166 10.9167C3.61666 11.4 4.69999 11.5917 5.72499 11.4167C6.06666 11.3584 6.39166 11.5917 6.44999 11.925C6.50833 12.2667 6.28332 12.5917 5.94166 12.65C5.61666 12.7084 5.29166 12.7334 4.96666 12.7334Z" fill="#33A2D2"/>
<path d="M9.99984 12.8166C9.97484 12.8166 9.95818 12.8166 9.93318 12.8166H9.89151C8.31651 12.7666 7.14151 11.5499 7.14151 10.0499C7.14151 8.51657 8.39151 7.2749 9.91651 7.2749C11.4415 7.2749 12.6915 8.5249 12.6915 10.0499C12.6832 11.5582 11.5082 12.7749 10.0082 12.8249C10.0082 12.8166 10.0082 12.8166 9.99984 12.8166ZM9.91651 8.51657C9.07484 8.51657 8.39151 9.19991 8.39151 10.0416C8.39151 10.8666 9.03318 11.5332 9.85818 11.5666C9.86651 11.5582 9.93318 11.5582 10.0082 11.5666C10.8165 11.5249 11.4415 10.8582 11.4498 10.0416C11.4498 9.20824 10.7665 8.51657 9.91651 8.51657Z" fill="#33A2D2"/>
<path d="M9.99983 18.9666C8.99983 18.9666 7.99983 18.7083 7.22483 18.1833C6.4915 17.6916 6.0665 16.9916 6.0665 16.2416C6.0665 15.4999 6.48316 14.7833 7.22483 14.2916C8.78316 13.2583 11.2248 13.2583 12.7748 14.2916C13.5082 14.7833 13.9332 15.4833 13.9332 16.2333C13.9332 16.9749 13.5165 17.6916 12.7748 18.1833C11.9998 18.6999 10.9998 18.9666 9.99983 18.9666ZM7.9165 15.3416C7.52483 15.5999 7.3165 15.9249 7.3165 16.2499C7.3165 16.5749 7.53317 16.8916 7.9165 17.1499C9.0415 17.9083 10.9498 17.9083 12.0748 17.1499C12.4665 16.8916 12.6748 16.5666 12.6748 16.2416C12.6748 15.9166 12.4582 15.5999 12.0748 15.3416C10.9582 14.5833 9.04983 14.5916 7.9165 15.3416Z" fill="#33A2D2"/>
</svg>
