<svg width="22" height="22" viewBox="0 0 22 22" fill="none" xmlns="http://www.w3.org/2000/svg">
<path d="M2 0.25C1.0335 0.25 0.25 1.0335 0.25 2H1.75C1.75 1.86193 1.86193 1.75 2 1.75V0.25ZM20 0.25H2V1.75H20V0.25ZM21.75 2C21.75 1.0335 20.9665 0.25 20 0.25V1.75C20.1381 1.75 20.25 1.86193 20.25 2H21.75ZM21.75 4V2H20.25V4H21.75ZM20 5.75C20.9665 5.75 21.75 4.9665 21.75 4H20.25C20.25 4.13807 20.1381 4.25 20 4.25V5.75ZM2 5.75H20V4.25H2V5.75ZM0.25 4C0.25 4.9665 1.0335 5.75 2 5.75V4.25C1.86193 4.25 1.75 4.13807 1.75 4H0.25ZM0.25 2V4H1.75V2H0.25ZM2 8.25C1.0335 8.25 0.25 9.0335 0.25 10H1.75C1.75 9.86193 1.86193 9.75 2 9.75V8.25ZM20 8.25H2V9.75H20V8.25ZM21.75 10C21.75 9.0335 20.9665 8.25 20 8.25V9.75C20.1381 9.75 20.25 9.86193 20.25 10H21.75ZM21.75 12V10H20.25V12H21.75ZM20 13.75C20.9665 13.75 21.75 12.9665 21.75 12H20.25C20.25 12.1381 20.1381 12.25 20 12.25V13.75ZM2 13.75H20V12.25H2V13.75ZM0.25 12C0.25 12.9665 1.0335 13.75 2 13.75V12.25C1.86193 12.25 1.75 12.1381 1.75 12H0.25ZM0.25 10V12H1.75V10H0.25ZM1.75 18C1.75 17.8619 1.86193 17.75 2 17.75V16.25C1.0335 16.25 0.25 17.0335 0.25 18H1.75ZM1.75 20V18H0.25V20H1.75ZM2 20.25C1.86193 20.25 1.75 20.1381 1.75 20H0.25C0.25 20.9665 1.0335 21.75 2 21.75V20.25ZM20 20.25H2V21.75H20V20.25ZM20.25 20C20.25 20.1381 20.1381 20.25 20 20.25V21.75C20.9665 21.75 21.75 20.9665 21.75 20H20.25ZM20.25 18V20H21.75V18H20.25ZM20 17.75C20.1381 17.75 20.25 17.8619 20.25 18H21.75C21.75 17.0335 20.9665 16.25 20 16.25V17.75ZM2 17.75H20V16.25H2V17.75Z" fill="#DEDEE4"/>
</svg>
